<?xml version="1.0" standalone="no"?>
<!DOCTYPE svg PUBLIC "-//W3C//DTD SVG 20010904//EN"
 "http://www.w3.org/TR/2001/REC-SVG-20010904/DTD/svg10.dtd">
<svg version="1.0" xmlns="http://www.w3.org/2000/svg"
 width="899.000000pt" height="899.000000pt" viewBox="0 0 899.000000 899.000000"
 preserveAspectRatio="xMidYMid meet">
<metadata>
Created by potrace 1.11, written by Peter Selinger 2001-2013
</metadata>
<g transform="translate(0.000000,899.000000) scale(0.100000,-0.100000)"
fill="#000000" stroke="none">
<path d="M4948 8070 c-30 -23 -56 -84 -69 -160 -10 -56 -12 -269 -4 -327 8
-64 37 -163 61 -213 13 -27 24 -52 24 -55 0 -2 -22 -16 -49 -30 -149 -75 -443
-294 -622 -463 -516 -486 -927 -1090 -1189 -1747 -65 -161 -157 -466 -185
-610 -85 -441 -92 -803 -24 -1105 71 -313 232 -573 467 -753 53 -41 235 -157
246 -157 2 0 42 -18 88 -39 96 -45 217 -91 408 -154 146 -48 333 -113 365
-126 11 -5 67 -25 125 -46 226 -80 357 -160 435 -266 111 -151 120 -365 25
-564 -116 -240 -325 -330 -594 -256 -137 38 -297 133 -395 235 -56 59 -124 58
-155 -2 -19 -37 -2 -76 56 -133 224 -218 567 -329 843 -272 96 19 254 99 342
174 174 146 315 385 358 609 21 110 14 304 -15 395 -68 214 -215 372 -450 483
-73 34 -482 181 -930 333 -479 163 -730 432 -826 884 -2 11 -7 43 -10 70 -3
28 -8 61 -10 75 -5 31 -5 302 0 350 2 19 7 67 11 105 3 39 8 79 10 90 6 24 13
67 21 115 11 73 85 360 120 465 185 562 506 1126 890 1565 93 106 300 307 404
392 101 82 325 238 342 238 5 0 31 -15 58 -34 48 -33 127 -68 187 -82 45 -11
460 -13 558 -3 276 29 419 131 375 265 -28 85 -137 132 -350 151 -99 9 -409 9
-487 0 -62 -8 -219 -49 -254 -67 -10 -6 -22 -10 -27 -10 -13 0 -60 155 -69
230 -13 102 -8 192 16 339 10 66 -1 104 -35 120 -36 16 -58 14 -86 -9z m904
-764 c60 -7 199 -33 205 -40 8 -8 -133 -47 -194 -53 -38 -4 -167 -8 -288 -8
-211 0 -222 1 -273 24 -29 13 -49 27 -45 31 16 15 110 40 178 47 81 9 327 8
417 -1z"/>
</g>
</svg>
